<?xml version="1.0" encoding="utf-8"?>
<!-- Generator: Adobe Illustrator 21.1.0, SVG Export Plug-In . SVG Version: 6.00 Build 0)  -->
<svg version="1.1" id="Layer_1"
	 xmlns="http://www.w3.org/2000/svg" xmlns:xlink="http://www.w3.org/1999/xlink" x="0px" y="0px" viewBox="0 0 510.2 79.1"
	 style="enable-background:new 0 0 510.2 79.1;" xml:space="preserve">
<style type="text/css">
	.st0{fill:#CAD400;}
	.st1{fill:#FFFFFF;}
	.st2{fill:#3C3C3B;}
</style>
<metadata>
	<sfw>
		<slices></slices>
		<sliceSourceBounds  bottomLeftOrigin="true" height="79.1" width="510.3" x="0" y="0"></sliceSourceBounds>
	</sfw>
</metadata>
<title>SSG Insight Logo 4cp AW</title>
<rect y="0.8" class="st0" width="77.7" height="77.7"/>
<path class="st1" d="M57.6,17.1v4.6c0,0.2-0.1,0.4-0.3,0.5c-0.2,0.1-0.4,0.1-0.5,0l-17.4-10c-0.3-0.2-0.7-0.2-1,0l-23,13.3
	c-0.3,0.2-0.5,0.5-0.5,0.9v26.6c0,0.4,0.2,0.7,0.5,0.9l23,13.3c0.3,0.2,0.7,0.2,1.1,0l23-13.3c0.3-0.2,0.5-0.5,0.5-0.9V38.7
	c0-0.4-0.2-0.7-0.5-0.9l-4.3-2.5c-0.3-0.2-0.5-0.5-0.5-0.9v-4.7c0-0.2,0.1-0.4,0.3-0.5c0.2-0.1,0.4-0.1,0.5,0l9.4,5.4
	c0.3,0.2,0.5,0.5,0.5,0.9V56c0,0.4-0.2,0.7-0.5,0.9L39.4,73.3c-0.2,0.1-0.3,0.1-0.5,0.1c-0.2,0-0.4,0-0.5-0.1L10,56.9
	c-0.3-0.2-0.5-0.5-0.5-0.9V23.2c0-0.4,0.2-0.7,0.5-0.9L38.3,5.9c0.2-0.1,0.3-0.1,0.5-0.1l0,0c0.2,0,0.4,0,0.5,0.1L57,16.1
	C57.4,16.3,57.6,16.7,57.6,17.1"/>
<path class="st1" d="M25.5,32.5v1.9c0,0.4,0.2,0.7,0.5,0.9l17.4,10.1c0.2,0.1,0.3,0.3,0.3,0.5c0,0.2-0.1,0.4-0.3,0.5l-4,2.3
	c-0.3,0.2-0.7,0.2-1,0L20.8,38.4c-0.3-0.2-0.5-0.5-0.5-0.9v-8c0-0.4,0.2-0.7,0.5-0.9l17.7-10.2c0.3-0.2,0.7-0.2,1.1,0l12.3,7.1
	c0.3,0.2,0.5,0.5,0.5,0.9V31c0,0.3-0.2,0.5-0.5,0.5c-0.1,0-0.2,0-0.3-0.1l-12.1-7c-0.3-0.2-0.7-0.2-1.1,0l-12.3,7.1
	C25.8,31.8,25.6,32.1,25.5,32.5"/>
<path class="st1" d="M52.2,46.7v-1.9c0-0.4-0.2-0.7-0.5-0.9l-17.4-10c-0.2-0.1-0.3-0.3-0.3-0.5c0-0.2,0.1-0.4,0.3-0.5l4-2.3
	c0.2-0.1,0.3-0.1,0.5-0.1c0.2,0,0.4,0,0.5,0.1L57,40.9c0.3,0.2,0.5,0.5,0.5,0.9v8c0,0.4-0.2,0.7-0.5,0.9L39.4,60.9
	c-0.3,0.2-0.7,0.2-1,0L20.7,50.7c-0.3-0.2-0.5-0.5-0.5-0.9v-4.6c0-0.2,0.1-0.4,0.3-0.5c0.2-0.1,0.4-0.1,0.5,0l17.4,10.1
	c0.3,0.2,0.7,0.2,1,0l12.3-7.1C52,47.5,52.2,47.1,52.2,46.7"/>
<path class="st2" d="M97.7,0.7h-7.6v77.8h7.6V0.7z M169.4,78.5h6.6V0.7h-7.6v64.8L116.8,0.5h-5.8v77.9h7.6V14.8L169.4,78.5z
	 M245.1,9c-3.3-2.8-7-5.1-11-6.6c-4.4-1.6-9.1-2.4-13.8-2.4c-3.8,0-7.6,0.5-11.2,1.5c-3.2,0.9-6.1,2.3-8.8,4.3
	c-2.4,1.8-4.4,4.2-5.7,7c-1.4,3-2.1,6.3-2,9.6c-0.1,2.8,0.4,5.5,1.6,8c1.1,2.2,2.7,4.1,4.7,5.6c2.4,1.7,5,3,7.7,3.8
	c3.1,1,6.7,2,10.8,3c3.9,0.9,7.3,1.8,10.2,2.6c2.6,0.7,5.1,1.8,7.4,3.1c1.8,1,3.3,2.5,4.5,4.3c1,1.9,1.6,4,1.5,6.1
	c0,4.5-1.8,7.9-5.3,10.1s-8.4,3.4-14.6,3.4c-5.5,0.1-11-1-16.1-3.2c-4.3-1.7-8.2-4.3-11.5-7.6l-3.7,6.3c8.6,7.5,19.1,11.3,31.3,11.3
	c3.8,0,7.5-0.4,11.2-1.3c3.2-0.7,6.2-2.1,8.9-3.9c2.4-1.7,4.4-4,5.8-6.6c1.5-2.9,2.2-6.1,2.1-9.3c0.1-3.1-0.5-6.1-1.9-8.8
	c-1.3-2.4-3.1-4.5-5.4-6c-2.6-1.8-5.4-3.1-8.5-4.1c-3.7-1.2-7.4-2.1-11.2-2.9c-3.7-0.8-7-1.6-9.7-2.4c-2.4-0.7-4.7-1.6-6.8-2.9
	c-1.6-0.9-3-2.3-4-3.9c-0.9-1.8-1.3-3.8-1.3-5.8c-0.2-4.1,1.6-8,4.7-10.6c3.1-2.6,8.2-3.9,15.1-3.9c4.3-0.1,8.5,0.7,12.5,2.3
	c3.4,1.3,6.4,3.4,8.8,6L245.1,9z M270.4,0.7h-7.6v77.8h7.6V0.7z M346.6,78.5h6.6V40.2h-23.8v5.9h17.2v13.1c-3.2,4-7.2,7.3-11.7,9.8
	c-3.9,2.1-8.3,3.1-12.7,3.1c-4,0-8-0.9-11.6-2.6c-3.5-1.7-6.7-4.1-9.3-7.1c-2.7-3-4.8-6.6-6.2-10.4c-1.5-4-2.2-8.2-2.2-12.5
	c0-4.1,0.7-8.2,2-12.1c1.2-3.8,3.1-7.3,5.6-10.5c2.4-3,5.5-5.5,8.9-7.3c3.6-1.8,7.6-2.8,11.7-2.7c4.9-0.1,9.7,1.1,13.9,3.4
	c4.3,2.5,7.8,6.2,10,10.6l5.9-4c-1.2-2.5-2.8-4.8-4.6-6.9c-1.9-2.1-4-3.9-6.4-5.4c-2.6-1.6-5.4-2.7-8.3-3.5
	c-3.4-0.9-6.9-1.3-10.4-1.3c-5,0-9.9,1.1-14.4,3.2c-4.4,2.1-8.2,5.1-11.4,8.7c-3.2,3.7-5.8,7.9-7.5,12.5c-1.8,4.8-2.7,9.8-2.7,14.9
	c0,5,0.9,9.9,2.8,14.5c1.8,4.6,4.4,8.9,7.6,12.7c3.2,3.7,7.1,6.8,11.5,9c4.5,2.3,9.5,3.5,14.5,3.4c9.3,0,17.6-4,24.9-11.9
	L346.6,78.5z M423.2,0.5v34.7H377V0.5h-7.6v77.9h7.6V42h46.2v36.4h7.7V0.5H423.2z"/>
<path class="st0" d="M491.3,0.5v0.9h3.5v8.9h1V1.3h3.5V0.5H491.3z M509.3,0.5l-3.8,6.7l-3.8-6.7h-1v9.7h1v-8l3.6,6.2h0.6l3.6-6.2v8
	h0.9V0.5H509.3z"/>
<polygon class="st0" points="446.1,0.2 446.1,78.1 453.8,78.1 453.8,7 481.6,7 481.6,0.2 "/>
</svg>
